<?xml version="1.0" encoding="UTF-8"?>
<!DOCTYPE svg PUBLIC "-//W3C//DTD SVG 1.1//EN" "http://www.w3.org/Graphics/SVG/1.1/DTD/svg11.dtd">
<!-- Creator: CorelDRAW 2019 (64-Bit) -->
<svg xmlns="http://www.w3.org/2000/svg" xml:space="preserve" width="210mm" height="297mm" version="1.1" style="shape-rendering:geometricPrecision; text-rendering:geometricPrecision; image-rendering:optimizeQuality; fill-rule:evenodd; clip-rule:evenodd"
viewBox="0 0 21000 29700"
 xmlns:xlink="http://www.w3.org/1999/xlink"
 xmlns:xodm="http://www.corel.com/coreldraw/odm/2003">
 <defs>
  <style type="text/css">
   <![CDATA[
    .str1 {stroke:black;stroke-width:282.22;stroke-miterlimit:22.9256}
    .str0 {stroke:black;stroke-width:352.78;stroke-miterlimit:22.9256}
    .fil3 {fill:none}
    .fil2 {fill:black}
    .fil4 {fill:black}
    .fil0 {fill:black}
    .fil1 {fill:#FFFF01}
   ]]>
  </style>
 </defs>
 <g id="Capa_x0020_1">
  <metadata id="CorelCorpID_0Corel-Layer"/>
  <rect class="fil0" x="41875.73" y="-6984.41" width="20600.78" height="20600.78" rx="1152.76" ry="1807.5"/>
  <rect class="fil1" x="42176.12" y="-6684.02" width="20000" height="20000" rx="1119.14" ry="1754.79"/>
  <g id="_1973742195920">
   <path class="fil2" d="M57520.69 1272.59c-259,-42.28 -407.61,-26.5 -672.13,-18.42 -24.42,-58.84 -41.95,-82.18 -82.4,-129.77 -18.97,-22.3 -29.01,-33.82 -52.34,-52.91l-59.69 -51.44c-34.23,2 -270.58,-37.28 -353.37,110.45 117.12,26.4 216.38,68.69 263.54,209.73 -81.82,124.02 -135.61,162.97 -94.93,435.61 30.84,206.71 8.76,297.25 160.06,387.64 -13.38,137.64 -117.02,223.67 -222.06,267.15 75.42,63.38 227.29,104.17 337.88,49.72 90.92,-44.77 148.79,-165.55 184.41,-274.37 317.54,0.11 829.67,-112.71 1047.15,-291.48 124.02,-101.94 163.81,-313.8 29.24,-456.24 -95.68,-101.27 -316.33,-150.73 -485.36,-185.67z"/>
   <g>
    <path class="fil2" d="M43092.45 4031.51c1198.17,-228.73 2349.69,-436.72 3466.55,-629.31l0.01 -5020.49 -3524.77 0.03 -3.35 5649.77 61.56 0z"/>
    <path class="fil2" d="M52230.53 2495.56l-0.02 -4110.27 -3470.41 -3.66c-78.47,0 -48.76,152.95 -48.43,226.82l0.01 4433.8c1201.31,-194.84 2368.89,-374.68 3518.85,-546.69z"/>
    <path class="fil2" d="M48711.68 5280.16l0.03 2750.2c-0.35,298.87 -29.3,269.28 143.52,266.66l2530.62 -1.13c261.17,0 587.97,17.25 841.13,-3.65l3.44 -4172.46c-1141.4,370.81 -2325.16,760.39 -3518.74,1160.38z"/>
    <path class="fil2" d="M43034.24 8295.79l3524.79 0.03 -5.37 -2284.17c-1177.99,404.08 -2345.86,813.05 -3471.48,1218.7 -1.15,0.41 0,1.26 0,0l0 -1.66c-20.39,11.53 -37.89,22.1 -51.66,31.45l3.72 1035.65z"/>
   </g>
   <path class="fil2" d="M55636.44 8277.69c-1345.22,0 -2017.83,-580.32 -2017.83,-1740.96l0 -2865.52c892.43,-286.84 1747.45,-558.8 2548.07,-811.49l0 2525.1c0,261.8 147.28,392.7 441.85,392.7l2238.77 0 0 -1492.25 -1428.68 0 0 -1818.99c275.43,-86.19 542.1,-169.4 798.58,-249.21l3104.53 0 0 6060.62 -5685.29 0zm-2017.83 -5987.54l0 -2141.28c0,-1213 672.61,-1819.5 2017.83,-1819.5l5596.91 0 0 2500.17 -4624.82 0c-294.57,0 -441.85,130.9 -441.85,392.7l0 697.82c-847.75,122.64 -1694.85,245.01 -2548.07,370.09z"/>
  </g>
  <rect class="fil3 str0" x="42603.37" y="-6256.77" width="19145.5" height="19145.5" rx="1071.33" ry="1679.82"/>
  <circle class="fil3 str1" cx="59297.76" cy="-3979.31" r="1546.56"/>
  <circle class="fil4 str1" cx="59297.76" cy="-3979.31" r="1167.8"/>
 </g>
</svg>
